<?xml version="1.0" encoding="utf-8"?>
<svg viewBox="0 0 120 120" xmlns="http://www.w3.org/2000/svg">
  <g fill="#ffffff" fill-rule="nonzero" stroke="none" stroke-width="0" stroke-linecap="butt" stroke-linejoin="miter" stroke-miterlimit="10" stroke-dasharray="" stroke-dashoffset="0" font-family="none" font-weight="none" font-size="none" text-anchor="none" style="mix-blend-mode: normal;" transform="matrix(1, 0, 0, 1, -160, -180)">
    <path d="M186.7,300c-17.8,0 -26.7,-8.9 -26.7,-26.7v-66.6c0,-17.8 8.9,-26.7 26.7,-26.7h66.6c17.8,0 26.7,8.9 26.7,26.7v66.6c0,17.8 -8.9,26.7 -26.7,26.7z"/>
  </g>
  <g fill="#0052CC" fill-rule="nonzero" transform="matrix(3.179919, 0, 0, 3.179919, 9.121292, 21.840989)" style="">
    <path d="M29.67 15.893c1.478.808 2.33 1.758 2.33 2.774C32 21.612 24.837 24 16 24S0 21.612 0 18.667c0-1.016.852-1.966 2.33-2.774C5.43 17.43 10.4 18.333 16 18.333c5.577 0 10.529-.896 13.629-2.42z" opacity=".4"/>
    <path d="M29.67 9.227C31.147 10.035 32 10.984 32 12c0 2.946-7.163 5.333-16 5.333S0 14.946 0 12c0-1.016.852-1.965 2.33-2.773 3.099 1.536 8.069 2.44 13.67 2.44 5.577 0 10.529-.896 13.629-2.42z" opacity=".7"/>
    <path d="M16 0C7.163 0 0 2.388 0 5.333c0 2.946 7.163 5.334 16 5.334s16-2.388 16-5.334C32 2.388 24.837 0 16 0z"/>
  </g>
</svg>